<svg xmlns="http://www.w3.org/2000/svg" xmlns:xlink="http://www.w3.org/1999/xlink" width="200" zoomAndPan="magnify" viewBox="0 0 150 60" height="80" preserveAspectRatio="xMidYMid meet" version="1.0"><defs><g/><clipPath id="bee3f15861"><path d="M 60.058594 8 L 63 8 L 63 18 L 60.058594 18 Z M 60.058594 8 " clip-rule="nonzero"/></clipPath><clipPath id="b325574d2c"><path d="M 69 2.785156 L 75 2.785156 L 75 4 L 69 4 Z M 69 2.785156 " clip-rule="nonzero"/></clipPath><clipPath id="ef49b08574"><path d="M 65 22 L 75 22 L 75 23.035156 L 65 23.035156 Z M 65 22 " clip-rule="nonzero"/></clipPath><clipPath id="4f1350b2bb"><path d="M 60.058594 3 L 100.558594 3 L 100.558594 23 L 60.058594 23 Z M 60.058594 3 " clip-rule="nonzero"/></clipPath><clipPath id="f411ea62d7"><path d="M 80.308594 5.429688 L 92 5.429688 L 92 18 L 80.308594 18 Z M 80.308594 5.429688 " clip-rule="nonzero"/></clipPath><clipPath id="133fc16121"><path d="M 80.308594 5.429688 L 95.308594 5.429688 L 95.308594 20.429688 L 80.308594 20.429688 Z M 80.308594 5.429688 " clip-rule="nonzero"/></clipPath></defs><g clip-path="url(#bee3f15861)"><path fill="#f2d9d9" d="M 60.371094 8 L 60.371094 17.890625 L 61.6875 17.890625 C 61.9375 17.890625 62.179688 17.792969 62.355469 17.617188 C 62.53125 17.445312 62.632812 17.207031 62.632812 16.957031 C 62.632812 15.070312 62.632812 10.824219 62.632812 8.933594 C 62.632812 8.6875 62.53125 8.449219 62.355469 8.273438 C 62.175781 8.097656 61.9375 8 61.683594 8 C 61.066406 8 60.371094 8 60.371094 8 Z M 60.371094 8 " fill-opacity="1" fill-rule="evenodd"/></g><g clip-path="url(#b325574d2c)"><path fill="#f2d9d9" d="M 69.292969 3.261719 L 69.292969 2.992188 C 69.292969 2.9375 69.328125 2.890625 69.386719 2.855469 C 69.449219 2.816406 69.53125 2.796875 69.617188 2.796875 C 70.496094 2.796875 72.890625 2.796875 73.769531 2.796875 C 73.953125 2.796875 74.097656 2.882812 74.097656 2.992188 C 74.097656 3.121094 74.097656 3.261719 74.097656 3.261719 Z M 69.292969 3.261719 " fill-opacity="1" fill-rule="evenodd"/></g><path fill="#775454" d="M 61.546875 10.640625 C 61.546875 10.515625 61.644531 10.414062 61.769531 10.414062 C 61.894531 10.414062 61.992188 10.515625 61.992188 10.640625 C 61.992188 10.765625 61.894531 10.867188 61.769531 10.867188 C 61.644531 10.867188 61.546875 10.765625 61.546875 10.640625 Z M 61.761719 11.773438 C 61.722656 11.773438 61.683594 11.789062 61.65625 11.820312 C 61.625 11.847656 61.609375 11.886719 61.609375 11.925781 L 61.609375 14.28125 C 61.609375 14.324219 61.625 14.363281 61.65625 14.390625 C 61.683594 14.417969 61.722656 14.4375 61.765625 14.4375 C 61.769531 14.4375 61.769531 14.4375 61.773438 14.4375 C 61.816406 14.4375 61.855469 14.417969 61.882812 14.390625 C 61.914062 14.363281 61.929688 14.324219 61.929688 14.28125 C 61.929688 13.8125 61.929688 12.390625 61.929688 11.925781 C 61.929688 11.886719 61.914062 11.847656 61.882812 11.820312 C 61.855469 11.789062 61.816406 11.773438 61.777344 11.773438 Z M 61.761719 11.773438 " fill-opacity="1" fill-rule="evenodd"/><g clip-path="url(#ef49b08574)"><path fill="#f2d9d9" d="M 72.035156 22.578125 L 72.035156 22.847656 C 72.035156 22.898438 72.054688 22.949219 72.089844 22.984375 C 72.128906 23.019531 72.179688 23.039062 72.230469 23.039062 C 72.753906 23.039062 74.183594 23.039062 74.710938 23.039062 C 74.820312 23.039062 74.910156 22.953125 74.910156 22.84375 C 74.910156 22.71875 74.910156 22.578125 74.910156 22.578125 Z M 68.34375 22.578125 L 68.34375 22.847656 C 68.34375 22.898438 68.363281 22.949219 68.398438 22.984375 C 68.4375 23.019531 68.488281 23.039062 68.539062 23.039062 C 69.0625 23.039062 70.492188 23.039062 71.019531 23.039062 C 71.128906 23.039062 71.21875 22.953125 71.21875 22.84375 C 71.21875 22.71875 71.21875 22.578125 71.21875 22.578125 Z M 67.054688 22.578125 L 67.054688 22.847656 C 67.054688 22.898438 67.03125 22.949219 66.996094 22.984375 C 66.960938 23.019531 66.910156 23.039062 66.859375 23.039062 L 65.558594 23.039062 C 65.503906 23.039062 65.457031 23.019531 65.417969 22.984375 C 65.382812 22.949219 65.363281 22.898438 65.363281 22.847656 L 65.363281 22.578125 Z M 67.054688 22.578125 " fill-opacity="1" fill-rule="evenodd"/></g><g clip-path="url(#4f1350b2bb)"><path fill="#f2d9d9" d="M 62.820312 3.027344 C 62.101562 3.027344 61.414062 3.3125 60.90625 3.8125 C 60.398438 4.316406 60.113281 4.996094 60.113281 5.707031 L 60.113281 20.046875 C 60.113281 20.757812 60.398438 21.4375 60.90625 21.941406 C 61.414062 22.441406 62.101562 22.722656 62.820312 22.722656 C 70.171875 22.722656 90.457031 22.722656 97.808594 22.722656 C 98.527344 22.722656 99.214844 22.441406 99.722656 21.941406 C 100.230469 21.4375 100.515625 20.757812 100.515625 20.046875 L 100.515625 5.707031 C 100.515625 4.996094 100.230469 4.316406 99.722656 3.8125 C 99.214844 3.3125 98.527344 3.027344 97.808594 3.027344 Z M 97.457031 4.179688 L 63.171875 4.179688 C 62.140625 4.179688 61.304688 5.007812 61.304688 6.027344 C 61.304688 9.367188 61.304688 16.386719 61.304688 19.726562 C 61.304688 20.21875 61.5 20.6875 61.851562 21.035156 C 62.199219 21.378906 62.675781 21.574219 63.167969 21.574219 L 97.457031 21.574219 C 98.488281 21.574219 99.324219 20.746094 99.324219 19.726562 C 99.324219 16.386719 99.324219 9.367188 99.324219 6.027344 C 99.324219 5.007812 98.488281 4.179688 97.457031 4.179688 Z M 97.457031 4.179688 " fill-opacity="1" fill-rule="evenodd"/></g><g clip-path="url(#f411ea62d7)"><path fill="#24abe2" d="M 91.921875 9.476562 L 87.941406 9.476562 L 87.941406 5.4375 L 84.289062 5.4375 L 84.289062 9.476562 L 80.308594 9.476562 L 80.308594 13.183594 L 84.289062 13.183594 L 84.289062 17.222656 L 87.941406 17.222656 L 87.941406 13.183594 L 91.921875 13.183594 Z M 91.921875 9.476562 " fill-opacity="1" fill-rule="nonzero"/></g><g clip-path="url(#133fc16121)"><path fill="#1775bb" d="M 84.902344 20.425781 C 83.6875 20.425781 82.664062 20.039062 81.941406 19.304688 C 81.644531 19.003906 81.410156 18.664062 81.234375 18.28125 C 81.0625 17.90625 80.945312 17.488281 80.882812 17.039062 C 80.824219 16.601562 80.820312 16.132812 80.867188 15.644531 C 80.917969 15.164062 81.019531 14.660156 81.171875 14.152344 L 81.371094 14.195312 C 81.175781 15.679688 81.539062 16.96875 82.382812 17.828125 C 83.082031 18.535156 84.054688 18.910156 85.207031 18.910156 C 87.113281 18.910156 89.265625 17.882812 90.960938 16.160156 C 93.78125 13.300781 94.515625 9.394531 92.605469 7.453125 C 91.90625 6.746094 90.933594 6.375 89.785156 6.375 C 89.414062 6.375 89.050781 6.410156 88.6875 6.480469 L 88.636719 6.28125 C 89.523438 5.957031 90.382812 5.792969 91.183594 5.792969 C 92.398438 5.792969 93.421875 6.179688 94.144531 6.914062 C 94.667969 7.441406 95.011719 8.121094 95.164062 8.933594 C 95.308594 9.710938 95.273438 10.574219 95.0625 11.5 C 94.851562 12.421875 94.472656 13.363281 93.941406 14.292969 C 93.386719 15.253906 92.691406 16.164062 91.871094 16.996094 C 90.820312 18.0625 89.613281 18.941406 88.382812 19.539062 C 87.1875 20.121094 85.980469 20.425781 84.902344 20.425781 Z M 84.902344 20.425781 " fill-opacity="1" fill-rule="nonzero"/></g><g fill="#d9d9d9" fill-opacity="1"><g transform="translate(6, 23.975957)"><g><path d="M 7.890625 0.15625 C 6.703125 0.15625 5.625 -0.101562 4.65625 -0.625 C 3.6875 -1.144531 2.914062 -1.914062 2.34375 -2.9375 C 1.78125 -3.96875 1.5 -5.191406 1.5 -6.609375 C 1.5 -7.691406 1.679688 -8.898438 2.046875 -10.234375 C 2.867188 -13.085938 4.15625 -15.097656 5.90625 -16.265625 C 7.65625 -17.441406 9.523438 -18.03125 11.515625 -18.03125 C 13.335938 -18.03125 14.976562 -17.375 16.4375 -16.0625 L 17.234375 -16.828125 C 17.671875 -17.203125 18.050781 -17.457031 18.375 -17.59375 C 18.695312 -17.738281 19.070312 -17.8125 19.5 -17.8125 C 19.957031 -17.8125 20.328125 -17.703125 20.609375 -17.484375 C 20.898438 -17.265625 21.046875 -16.96875 21.046875 -16.59375 C 21.046875 -16.445312 21.019531 -16.273438 20.96875 -16.078125 L 20 -12.71875 C 19.820312 -12.15625 19.613281 -11.753906 19.375 -11.515625 C 19.132812 -11.285156 18.8125 -11.171875 18.40625 -11.171875 C 17.976562 -11.171875 17.597656 -11.273438 17.265625 -11.484375 C 16.941406 -11.703125 16.566406 -12.085938 16.140625 -12.640625 C 15.566406 -13.390625 15.0625 -13.921875 14.625 -14.234375 C 14.1875 -14.546875 13.710938 -14.703125 13.203125 -14.703125 C 12.398438 -14.703125 11.640625 -14.296875 10.921875 -13.484375 C 10.203125 -12.671875 9.578125 -11.320312 9.046875 -9.4375 C 8.703125 -8.207031 8.53125 -7.148438 8.53125 -6.265625 C 8.53125 -5.328125 8.710938 -4.613281 9.078125 -4.125 C 9.441406 -3.632812 9.953125 -3.390625 10.609375 -3.390625 C 11.179688 -3.390625 11.625 -3.519531 11.9375 -3.78125 C 12.25 -4.050781 12.492188 -4.515625 12.671875 -5.171875 L 12.859375 -5.84375 C 12.941406 -6.195312 12.984375 -6.4375 12.984375 -6.5625 C 12.984375 -6.769531 12.9375 -6.914062 12.84375 -7 C 12.75 -7.09375 12.582031 -7.195312 12.34375 -7.3125 L 11.421875 -7.65625 C 11.003906 -7.8125 10.796875 -8.101562 10.796875 -8.53125 C 10.796875 -8.65625 10.804688 -8.753906 10.828125 -8.828125 C 10.898438 -9.054688 11.03125 -9.222656 11.21875 -9.328125 C 11.40625 -9.441406 11.691406 -9.5 12.078125 -9.5 L 20.140625 -9.46875 C 20.722656 -9.46875 21.015625 -9.28125 21.015625 -8.90625 C 21.015625 -8.832031 21 -8.726562 20.96875 -8.59375 C 20.894531 -8.320312 20.773438 -8.101562 20.609375 -7.9375 C 20.453125 -7.78125 20.222656 -7.625 19.921875 -7.46875 L 19.234375 -7.0625 C 19.054688 -6.957031 18.921875 -6.851562 18.828125 -6.75 C 18.742188 -6.65625 18.679688 -6.539062 18.640625 -6.40625 L 17.234375 -1.46875 C 17.054688 -0.882812 16.851562 -0.492188 16.625 -0.296875 C 16.40625 -0.0976562 16.132812 0 15.8125 0 L 14.703125 0 C 14.273438 0 13.921875 -0.0859375 13.640625 -0.265625 C 13.367188 -0.441406 13.144531 -0.789062 12.96875 -1.3125 L 12.703125 -2.078125 C 11.421875 -0.585938 9.816406 0.15625 7.890625 0.15625 Z M 7.890625 0.15625 "/></g></g></g><g fill="#d9d9d9" fill-opacity="1"><g transform="translate(26.186266, 23.975957)"><g><path d="M 9.046875 -14.25 C 11.296875 -14.25 12.925781 -13.882812 13.9375 -13.15625 C 14.957031 -12.4375 15.46875 -11.519531 15.46875 -10.40625 C 15.46875 -10.0625 15.429688 -9.75 15.359375 -9.46875 C 15.097656 -8.289062 14.359375 -7.445312 13.140625 -6.9375 C 11.921875 -6.4375 10.484375 -6.1875 8.828125 -6.1875 C 7.992188 -6.1875 7.210938 -6.238281 6.484375 -6.34375 C 6.460938 -5.425781 6.707031 -4.78125 7.21875 -4.40625 C 7.738281 -4.03125 8.460938 -3.84375 9.390625 -3.84375 C 9.816406 -3.84375 10.222656 -3.890625 10.609375 -3.984375 C 11.003906 -4.085938 11.503906 -4.234375 12.109375 -4.421875 C 12.609375 -4.597656 12.945312 -4.6875 13.125 -4.6875 C 13.320312 -4.6875 13.421875 -4.570312 13.421875 -4.34375 C 13.429688 -3.71875 13.195312 -3.0625 12.71875 -2.375 C 12.238281 -1.695312 11.523438 -1.117188 10.578125 -0.640625 C 9.640625 -0.160156 8.503906 0.078125 7.171875 0.078125 C 5.203125 0.078125 3.582031 -0.414062 2.3125 -1.40625 C 1.050781 -2.40625 0.421875 -3.859375 0.421875 -5.765625 C 0.421875 -6.296875 0.492188 -6.914062 0.640625 -7.625 C 1.085938 -9.8125 2.0625 -11.460938 3.5625 -12.578125 C 5.0625 -13.691406 6.890625 -14.25 9.046875 -14.25 Z M 6.671875 -7.953125 C 6.742188 -7.929688 6.84375 -7.921875 6.96875 -7.921875 C 7.707031 -7.921875 8.269531 -8.265625 8.65625 -8.953125 C 9.050781 -9.648438 9.242188 -10.425781 9.234375 -11.28125 C 9.210938 -11.78125 9.066406 -12.03125 8.796875 -12.03125 C 8.609375 -12.03125 8.378906 -11.875 8.109375 -11.5625 C 7.835938 -11.25 7.570312 -10.78125 7.3125 -10.15625 C 7.0625 -9.539062 6.847656 -8.804688 6.671875 -7.953125 Z M 6.671875 -7.953125 "/></g></g></g><g fill="#d9d9d9" fill-opacity="1"><g transform="translate(41.119298, 23.975957)"><g><path d="M 11.921875 -13.765625 C 12.253906 -13.765625 12.515625 -13.691406 12.703125 -13.546875 C 12.890625 -13.410156 12.984375 -13.21875 12.984375 -12.96875 C 12.984375 -12.894531 12.96875 -12.769531 12.9375 -12.59375 C 12.707031 -11.8125 12.171875 -11.421875 11.328125 -11.421875 L 9.78125 -11.421875 L 7.78125 -4.828125 C 7.695312 -4.554688 7.65625 -4.28125 7.65625 -4 C 7.65625 -3.675781 7.742188 -3.453125 7.921875 -3.328125 C 8.097656 -3.203125 8.347656 -3.140625 8.671875 -3.140625 C 8.953125 -3.140625 9.304688 -3.175781 9.734375 -3.25 C 9.953125 -3.300781 10.140625 -3.328125 10.296875 -3.328125 C 10.421875 -3.328125 10.515625 -3.285156 10.578125 -3.203125 C 10.640625 -3.128906 10.671875 -3.03125 10.671875 -2.90625 C 10.691406 -2.550781 10.425781 -2.117188 9.875 -1.609375 C 9.332031 -1.109375 8.597656 -0.675781 7.671875 -0.3125 C 6.753906 0.0507812 5.734375 0.234375 4.609375 0.234375 C 3.398438 0.234375 2.429688 -0.0351562 1.703125 -0.578125 C 0.972656 -1.128906 0.609375 -1.890625 0.609375 -2.859375 C 0.609375 -3.296875 0.679688 -3.722656 0.828125 -4.140625 L 2.53125 -9.421875 C 2.625 -9.722656 2.671875 -9.960938 2.671875 -10.140625 C 2.671875 -10.492188 2.582031 -10.796875 2.40625 -11.046875 C 2.238281 -11.296875 2.003906 -11.550781 1.703125 -11.8125 C 1.441406 -12.0625 1.253906 -12.269531 1.140625 -12.4375 C 1.035156 -12.613281 1.007812 -12.816406 1.0625 -13.046875 C 1.132812 -13.273438 1.285156 -13.453125 1.515625 -13.578125 C 1.742188 -13.703125 2.109375 -13.765625 2.609375 -13.765625 L 4.109375 -13.765625 L 5.78125 -15.4375 C 6.375 -16.03125 6.914062 -16.441406 7.40625 -16.671875 C 7.894531 -16.898438 8.53125 -17.015625 9.3125 -17.015625 C 10.425781 -17.015625 10.984375 -16.585938 10.984375 -15.734375 C 10.984375 -15.472656 10.945312 -15.222656 10.875 -14.984375 L 10.515625 -13.765625 Z M 11.921875 -13.765625 "/></g></g></g><g fill="#dceaf4" fill-opacity="1"><g transform="translate(1.437174, 49.411777)"><g><path d="M 30.03125 -18.625 C 30.425781 -18.625 30.726562 -18.5625 30.9375 -18.4375 C 31.15625 -18.320312 31.265625 -18.148438 31.265625 -17.921875 C 31.265625 -17.828125 31.238281 -17.707031 31.1875 -17.5625 C 31.125 -17.394531 31.039062 -17.269531 30.9375 -17.1875 C 30.84375 -17.101562 30.691406 -16.992188 30.484375 -16.859375 C 30.179688 -16.691406 29.941406 -16.503906 29.765625 -16.296875 C 29.585938 -16.097656 29.4375 -15.785156 29.3125 -15.359375 L 25.90625 -3.328125 C 25.820312 -3.085938 25.78125 -2.851562 25.78125 -2.625 C 25.78125 -2.425781 25.8125 -2.253906 25.875 -2.109375 C 25.945312 -1.972656 26.039062 -1.8125 26.15625 -1.625 C 26.226562 -1.53125 26.289062 -1.429688 26.34375 -1.328125 C 26.40625 -1.222656 26.4375 -1.113281 26.4375 -1 C 26.4375 -0.96875 26.414062 -0.878906 26.375 -0.734375 C 26.300781 -0.484375 26.128906 -0.300781 25.859375 -0.1875 C 25.585938 -0.0820312 25.203125 -0.03125 24.703125 -0.03125 L 18.125 -0.03125 C 17.726562 -0.03125 17.421875 -0.09375 17.203125 -0.21875 C 16.992188 -0.351562 16.890625 -0.53125 16.890625 -0.75 C 16.890625 -0.863281 16.921875 -0.988281 16.984375 -1.125 C 17.035156 -1.25 17.113281 -1.363281 17.21875 -1.46875 C 17.320312 -1.570312 17.414062 -1.644531 17.5 -1.6875 C 17.582031 -1.738281 17.640625 -1.78125 17.671875 -1.8125 C 17.972656 -1.976562 18.21875 -2.164062 18.40625 -2.375 C 18.59375 -2.582031 18.75 -2.898438 18.875 -3.328125 L 21 -10.875 L 13.765625 -1.90625 C 13.160156 -1.175781 12.675781 -0.675781 12.3125 -0.40625 C 11.957031 -0.132812 11.546875 0 11.078125 0 C 10.628906 0 10.28125 -0.140625 10.03125 -0.421875 C 9.78125 -0.710938 9.550781 -1.207031 9.34375 -1.90625 L 6.71875 -10.546875 L 4.640625 -3.296875 C 4.566406 -3.054688 4.53125 -2.820312 4.53125 -2.59375 C 4.53125 -2.375 4.5625 -2.1875 4.625 -2.03125 C 4.695312 -1.882812 4.796875 -1.726562 4.921875 -1.5625 C 5.085938 -1.320312 5.171875 -1.128906 5.171875 -0.984375 C 5.171875 -0.941406 5.15625 -0.847656 5.125 -0.703125 C 5.039062 -0.441406 4.867188 -0.257812 4.609375 -0.15625 C 4.347656 -0.0507812 3.957031 0 3.4375 0 L 1.125 0 C 0.726562 0 0.421875 -0.0625 0.203125 -0.1875 C -0.00390625 -0.320312 -0.109375 -0.503906 -0.109375 -0.734375 C -0.109375 -0.835938 -0.0820312 -0.957031 -0.03125 -1.09375 C 0.0390625 -1.289062 0.160156 -1.445312 0.328125 -1.5625 C 0.503906 -1.675781 0.609375 -1.742188 0.640625 -1.765625 C 0.941406 -1.953125 1.1875 -2.140625 1.375 -2.328125 C 1.5625 -2.523438 1.71875 -2.847656 1.84375 -3.296875 L 5.265625 -15.375 L 4.8125 -16.859375 C 4.71875 -17.140625 4.671875 -17.410156 4.671875 -17.671875 C 4.671875 -18.003906 4.773438 -18.242188 4.984375 -18.390625 C 5.203125 -18.546875 5.535156 -18.625 5.984375 -18.625 L 10.328125 -18.625 C 10.878906 -18.625 11.289062 -18.503906 11.5625 -18.265625 C 11.832031 -18.023438 12.050781 -17.601562 12.21875 -17 L 15.015625 -7.71875 L 22.59375 -17.140625 C 23.082031 -17.742188 23.554688 -18.140625 24.015625 -18.328125 C 24.484375 -18.523438 25.101562 -18.625 25.875 -18.625 Z M 30.03125 -18.625 "/></g></g></g><g fill="#dceaf4" fill-opacity="1"><g transform="translate(30.372851, 49.411777)"><g><path d="M 10.828125 -14.796875 C 13.359375 -14.796875 15.222656 -14.28125 16.421875 -13.25 C 17.628906 -12.226562 18.234375 -10.890625 18.234375 -9.234375 C 18.234375 -8.671875 18.160156 -8.046875 18.015625 -7.359375 C 17.660156 -5.828125 17 -4.488281 16.03125 -3.34375 C 15.0625 -2.195312 13.867188 -1.3125 12.453125 -0.6875 C 11.046875 -0.0625 9.523438 0.25 7.890625 0.25 C 5.296875 0.25 3.378906 -0.265625 2.140625 -1.296875 C 0.898438 -2.335938 0.28125 -3.710938 0.28125 -5.421875 C 0.28125 -6.003906 0.351562 -6.648438 0.5 -7.359375 C 0.851562 -8.804688 1.53125 -10.09375 2.53125 -11.21875 C 3.53125 -12.351562 4.75 -13.234375 6.1875 -13.859375 C 7.632812 -14.484375 9.179688 -14.796875 10.828125 -14.796875 Z M 10.734375 -12.3125 C 10.347656 -12.3125 9.9375 -11.957031 9.5 -11.25 C 9.0625 -10.550781 8.539062 -9.234375 7.9375 -7.296875 C 7.34375 -5.359375 7.046875 -4 7.046875 -3.21875 C 7.046875 -2.800781 7.109375 -2.523438 7.234375 -2.390625 C 7.367188 -2.253906 7.550781 -2.1875 7.78125 -2.1875 C 8.164062 -2.144531 8.566406 -2.476562 8.984375 -3.1875 C 9.410156 -3.894531 9.941406 -5.273438 10.578125 -7.328125 C 11.148438 -9.140625 11.4375 -10.453125 11.4375 -11.265625 C 11.4375 -11.660156 11.375 -11.929688 11.25 -12.078125 C 11.132812 -12.234375 10.960938 -12.3125 10.734375 -12.3125 Z M 10.734375 -12.3125 "/></g></g></g><g fill="#dceaf4" fill-opacity="1"><g transform="translate(48.712764, 49.411777)"><g><path d="M 14.265625 -14.90625 C 15.640625 -14.90625 16.742188 -14.410156 17.578125 -13.421875 C 18.410156 -12.429688 18.828125 -11.128906 18.828125 -9.515625 C 18.828125 -8.671875 18.722656 -7.847656 18.515625 -7.046875 C 17.921875 -4.640625 16.898438 -2.820312 15.453125 -1.59375 C 14.003906 -0.363281 12.335938 0.25 10.453125 0.25 C 9.390625 0.25 8.472656 0.0664062 7.703125 -0.296875 C 6.929688 -0.660156 6.3125 -1.175781 5.84375 -1.84375 L 4.84375 -0.984375 C 4.445312 -0.640625 4.0625 -0.390625 3.6875 -0.234375 C 3.3125 -0.078125 2.882812 0 2.40625 0 L 1.171875 0 C 0.703125 0 0.34375 -0.0976562 0.09375 -0.296875 C -0.15625 -0.492188 -0.28125 -0.773438 -0.28125 -1.140625 C -0.28125 -1.304688 -0.253906 -1.503906 -0.203125 -1.734375 L 4.46875 -16.921875 C 4.53125 -17.085938 4.5625 -17.226562 4.5625 -17.34375 C 4.5625 -17.65625 4.363281 -17.953125 3.96875 -18.234375 C 3.78125 -18.398438 3.648438 -18.535156 3.578125 -18.640625 C 3.503906 -18.742188 3.492188 -18.878906 3.546875 -19.046875 C 3.679688 -19.472656 4.273438 -19.847656 5.328125 -20.171875 C 6.378906 -20.503906 7.484375 -20.671875 8.640625 -20.671875 C 9.722656 -20.671875 10.519531 -20.457031 11.03125 -20.03125 C 11.539062 -19.613281 11.796875 -19.050781 11.796875 -18.34375 C 11.796875 -17.957031 11.734375 -17.566406 11.609375 -17.171875 L 10.4375 -13.375 C 11.507812 -14.394531 12.785156 -14.90625 14.265625 -14.90625 Z M 11.109375 -7.21875 C 11.472656 -8.488281 11.65625 -9.515625 11.65625 -10.296875 C 11.65625 -11.148438 11.40625 -11.578125 10.90625 -11.578125 C 10.457031 -11.578125 10.039062 -11.34375 9.65625 -10.875 L 7.828125 -4.953125 L 7.65625 -4.421875 C 7.570312 -4.140625 7.53125 -3.847656 7.53125 -3.546875 C 7.53125 -2.898438 7.835938 -2.578125 8.453125 -2.578125 C 8.898438 -2.578125 9.328125 -2.898438 9.734375 -3.546875 C 10.140625 -4.203125 10.597656 -5.425781 11.109375 -7.21875 Z M 11.109375 -7.21875 "/></g></g></g><g fill="#dceaf4" fill-opacity="1"><g transform="translate(67.639778, 49.411777)"><g><path d="M 7.34375 -14.796875 C 8.425781 -14.796875 9.21875 -14.585938 9.71875 -14.171875 C 10.226562 -13.765625 10.484375 -13.207031 10.484375 -12.5 C 10.484375 -12.070312 10.414062 -11.660156 10.28125 -11.265625 L 7.71875 -2.90625 C 7.65625 -2.6875 7.625 -2.492188 7.625 -2.328125 C 7.625 -2.078125 7.671875 -1.878906 7.765625 -1.734375 C 7.859375 -1.597656 7.988281 -1.46875 8.15625 -1.34375 C 8.289062 -1.207031 8.382812 -1.097656 8.4375 -1.015625 C 8.5 -0.929688 8.507812 -0.828125 8.46875 -0.703125 C 8.375 -0.453125 8.1875 -0.269531 7.90625 -0.15625 C 7.625 -0.0507812 7.195312 0 6.625 0 L 0.25 0 C -0.238281 0 -0.59375 -0.078125 -0.8125 -0.234375 C -1.039062 -0.390625 -1.117188 -0.597656 -1.046875 -0.859375 C -0.960938 -1.085938 -0.765625 -1.285156 -0.453125 -1.453125 C -0.171875 -1.597656 0.0625 -1.773438 0.25 -1.984375 C 0.4375 -2.191406 0.59375 -2.519531 0.71875 -2.96875 L 3.15625 -11.046875 C 3.207031 -11.210938 3.234375 -11.351562 3.234375 -11.46875 C 3.234375 -11.675781 3.1875 -11.835938 3.09375 -11.953125 C 3 -12.078125 2.859375 -12.203125 2.671875 -12.328125 C 2.492188 -12.484375 2.363281 -12.613281 2.28125 -12.71875 C 2.207031 -12.832031 2.203125 -12.984375 2.265625 -13.171875 C 2.367188 -13.597656 2.953125 -13.972656 4.015625 -14.296875 C 5.078125 -14.628906 6.1875 -14.796875 7.34375 -14.796875 Z M 9.234375 -20.96875 C 9.960938 -20.96875 10.566406 -20.726562 11.046875 -20.25 C 11.535156 -19.78125 11.78125 -19.203125 11.78125 -18.515625 C 11.78125 -18.023438 11.648438 -17.546875 11.390625 -17.078125 C 11.140625 -16.617188 10.785156 -16.242188 10.328125 -15.953125 C 9.878906 -15.660156 9.375 -15.515625 8.8125 -15.515625 C 8.101562 -15.515625 7.507812 -15.753906 7.03125 -16.234375 C 6.5625 -16.710938 6.316406 -17.304688 6.296875 -18.015625 C 6.296875 -18.484375 6.414062 -18.941406 6.65625 -19.390625 C 6.894531 -19.847656 7.238281 -20.222656 7.6875 -20.515625 C 8.132812 -20.816406 8.648438 -20.96875 9.234375 -20.96875 Z M 9.234375 -20.96875 "/></g></g></g><g fill="#dceaf4" fill-opacity="1"><g transform="translate(77.872112, 49.411777)"><g><path d="M 8.921875 -20.671875 C 10.003906 -20.671875 10.800781 -20.460938 11.3125 -20.046875 C 11.820312 -19.640625 12.078125 -19.082031 12.078125 -18.375 C 12.078125 -17.96875 12.015625 -17.566406 11.890625 -17.171875 L 7.5 -2.90625 C 7.4375 -2.6875 7.40625 -2.492188 7.40625 -2.328125 C 7.40625 -2.078125 7.453125 -1.878906 7.546875 -1.734375 C 7.640625 -1.597656 7.769531 -1.46875 7.9375 -1.34375 C 8.070312 -1.207031 8.164062 -1.097656 8.21875 -1.015625 C 8.28125 -0.929688 8.289062 -0.828125 8.25 -0.703125 C 8.15625 -0.453125 7.96875 -0.269531 7.6875 -0.15625 C 7.40625 -0.0507812 6.976562 0 6.40625 0 L 0.03125 0 C -0.457031 0 -0.8125 -0.078125 -1.03125 -0.234375 C -1.257812 -0.390625 -1.335938 -0.597656 -1.265625 -0.859375 C -1.179688 -1.085938 -0.984375 -1.285156 -0.671875 -1.453125 C -0.390625 -1.597656 -0.15625 -1.773438 0.03125 -1.984375 C 0.21875 -2.191406 0.375 -2.519531 0.5 -2.96875 L 4.75 -16.921875 C 4.8125 -17.085938 4.84375 -17.226562 4.84375 -17.34375 C 4.84375 -17.539062 4.789062 -17.707031 4.6875 -17.84375 C 4.582031 -17.976562 4.445312 -18.109375 4.28125 -18.234375 C 4.09375 -18.378906 3.957031 -18.507812 3.875 -18.625 C 3.789062 -18.738281 3.773438 -18.890625 3.828125 -19.078125 C 3.941406 -19.503906 4.53125 -19.875 5.59375 -20.1875 C 6.65625 -20.507812 7.765625 -20.671875 8.921875 -20.671875 Z M 8.921875 -20.671875 "/></g></g></g><g fill="#dceaf4" fill-opacity="1"><g transform="translate(88.104446, 49.411777)"><g><path d="M 9.484375 -14.9375 C 11.847656 -14.9375 13.5625 -14.554688 14.625 -13.796875 C 15.6875 -13.046875 16.21875 -12.082031 16.21875 -10.90625 C 16.21875 -10.550781 16.179688 -10.222656 16.109375 -9.921875 C 15.828125 -8.691406 15.046875 -7.8125 13.765625 -7.28125 C 12.492188 -6.75 10.988281 -6.484375 9.25 -6.484375 C 8.375 -6.484375 7.554688 -6.539062 6.796875 -6.65625 C 6.773438 -5.6875 7.035156 -5.003906 7.578125 -4.609375 C 8.117188 -4.222656 8.875 -4.03125 9.84375 -4.03125 C 10.289062 -4.03125 10.71875 -4.078125 11.125 -4.171875 C 11.539062 -4.273438 12.066406 -4.429688 12.703125 -4.640625 C 13.222656 -4.828125 13.578125 -4.921875 13.765625 -4.921875 C 13.960938 -4.921875 14.0625 -4.800781 14.0625 -4.5625 C 14.082031 -3.90625 13.835938 -3.21875 13.328125 -2.5 C 12.828125 -1.78125 12.082031 -1.171875 11.09375 -0.671875 C 10.113281 -0.171875 8.925781 0.078125 7.53125 0.078125 C 5.457031 0.078125 3.757812 -0.441406 2.4375 -1.484375 C 1.113281 -2.523438 0.453125 -4.046875 0.453125 -6.046875 C 0.453125 -6.597656 0.523438 -7.25 0.671875 -8 C 1.140625 -10.289062 2.160156 -12.019531 3.734375 -13.1875 C 5.304688 -14.351562 7.222656 -14.9375 9.484375 -14.9375 Z M 6.984375 -8.328125 C 7.066406 -8.316406 7.171875 -8.3125 7.296875 -8.3125 C 8.078125 -8.3125 8.671875 -8.671875 9.078125 -9.390625 C 9.492188 -10.117188 9.691406 -10.929688 9.671875 -11.828125 C 9.660156 -12.347656 9.515625 -12.609375 9.234375 -12.609375 C 9.023438 -12.609375 8.78125 -12.445312 8.5 -12.125 C 8.21875 -11.800781 7.941406 -11.3125 7.671875 -10.65625 C 7.398438 -10 7.171875 -9.222656 6.984375 -8.328125 Z M 6.984375 -8.328125 "/></g></g></g><g fill="#dceaf4" fill-opacity="1"><g transform="translate(100.719092, 43.57866)"><g><path d="M 11.46875 0 L 4.546875 0 L 4.546875 -34.984375 L 11.46875 -34.984375 Z M 11.46875 0 "/></g></g></g><g fill="#dceaf4" fill-opacity="1"><g transform="translate(116.747255, 43.57866)"><g><path d="M 20.796875 0 L 12.453125 0 L 0.625 -34.984375 L 7.96875 -34.984375 L 16.46875 -8.90625 L 17.0625 -8.90625 L 25.4375 -34.984375 L 32.59375 -34.984375 Z M 20.796875 0 "/></g></g></g></svg>